/* XPM */
static char *avatar[] = {
/* columns rows colors chars-per-pixel */
"50 50 31 1 ",
"  c black",
". c #005B11",
"X c #554416",
"o c #536A0E",
"O c #1E0040",
"+ c #006B41",
"@ c #915731",
"# c #008C00",
"$ c #01D200",
"% c #1FF009",
"& c #3DFF27",
"* c #00A157",
"= c #0EBF75",
"- c #9B8A5C",
"; c #B9A87A",
": c #D79D77",
"> c #B7CE72",
", c #640086",
"< c #8219A4",
"1 c #00B187",
"2 c #2CDD93",
"3 c #00CFA5",
"4 c #4AFBB1",
"5 c #1EEDC3",
"6 c #F5BB95",
"7 c #B0DAB3",
"8 c #D5EC90",
"9 c #FFD9B3",
"0 c #C0C0C0",
"q c white",
"w c None",
/* pixels */
"wwwwwwwwwwwwwwwwwwwwwwwwwwwwwwwwwwwwwwwwwwwwwwwwww",
"wwwwwwwwwwwwwwwwwwwwwwwww.wwwwwwwwwwwwwwwwwwwwwwww",
"wwwwwwwwwwwwwwwwwwwwwwww..wwwwwwwwwwwwwwwwwwwwwwww",
"wwwwwwwwwwwwwwwwwwwwwww.2.w...wwwwwwwwwwwwwwwwwwww",
"wwwwwwwwwwwwwwwwwwwwwww.2=.=.wwwwwwwwwwwwwwwwwwwww",
"wwwwwwwwwwwwwwwwwwwwwwww.=*=.wwwwwwwwwwwwwwwwwwwww",
"wwwwwwwwwwwwwwwwwwwww.....*...wwwwwwwwwwwwwwwwwwww",
"wwwwwwwwwwwwwwwwwww..=22=*.*==..wwwwwwwwwwwwwwwwww",
"wwwwwwwwwwwwwwwwww.=22222=*=222=.wwwwwwwwwwwwwwwww",
"wwwwwwwwwwwwwwwww.=242=2=2=2=242=.wwwwwwwwwwwwwwww",
"wwwwwwwwwwwwwwww.*242*2=24=24*242*.wwwwwwwwwwwwwww",
"wwwwwwwwwwwwwwww.=42*2=*24*24=*24=.wwwwwwwwwwwwwww",
"wwwwwwwwwwwwwww.*24=.2..=2..2=.=42*.wwwwwwwwwwwwww",
"wwwwwwwwwwwwwww.=22..2.6.=.6.=.*24=.wwwwwwwwwwwwww",
"wwwwwwwwwwwwwww.=2=...696..9..6.=4=.wwwwwwwwwwwwww",
"wwwwwwwwwwwwwww.=2.@@.@696.6.@@.=4=.wwwwwwwwwwwwww",
"wwwwwwwwwwwwwww.=2.6666@666@6666.4=.wwwwwwwwwwwwww",
"wwwwwwwwwwwwww.**2.6666666666666.2**.wwwwwwwwwwwww",
"wwwwwwwwwwwwww.**=.     666     .2**.wwwwwwwwwwwww",
"wwwwwwwwwwwwww.*.=.0 q 06660 q 0.=.*.wwwwwwwwwwwww",
"wwwwwwwwwwwww..*.=.q777q969q777q.=.*..wwwwwwwwwwww",
"wwwwwwwwwwww...*.*.@q7q@999@q7q@.*.*...wwwwwwwwwww",
"wwwwwwwwwwwwww...*.6@@@99999@@@6.*...wwwwwwwwwwwww",
"wwwwwwwwwwwww..**..:6999@@@9966:..**..wwwwwwwwwwww",
"wwwwwwwwwwwww......@@669999966@@......wwwwwwwwwwww",
"wwwwwwwwwwwwwwwww..*.@@:666:@@.*..wwwwwwwwwwwwwwww",
"wwwwwwwwwwwwwwwww...*..@@@@@..*...wwwwwwwwwwwwwwww",
"wwwwwwwwwwwwwwwww.ww.++66666++.ww.wwwwwwwwwwwwwwww",
"wwwwwwwwwwwwwwwwwwww@+1+666+1+@wwwwwwwwwwwwwwwwwww",
"wwwwwwwwwwwwwwwwwwww@+15+++51+@wwwwwwwwwwwwwwwwwww",
"wwwwwwwwwwwwwwwwwww@9+3155513+9@wwwwwwwwwwwwwwwwww",
"wwwwwwwwwwwwwwwwwww##+3511153+##wwwwwwwwwwwwwwwwww",
"wwwwwwwwwwwwwwwwww#%%+3555553+%%#wwwwwwwwwwwwwwwww",
"wwwwwwwwwwwwwwwwww#&+355555553+&#wwwwwwwwwwwwwwwww",
"wwwwwwwwwwwwwwwwww#&+355555553+&#wwwwwwwwwwwwwwwww",
"wwwwwwwwwwwwwwwww#%&+155555551+&%#wwwwwwwwwwwwwwww",
"wwwwwwwwwwwwwwwww#%&+313131313+&%#wwwwwwwwwwwwwwww",
"wwwwwwwwwwwwwwwww#$&++3333333++&$#wwwwwwwwwwwwwwww",
"wwwwwwwwwwwwwwwwww#%O,+++++++,O%#wwwwwwwwwwwwwwwww",
"wwwwwwwwwwwwwwwwwww##O<,OOO,<O##wwwwwwwwwwwwwwwwww",
"wwwwwwwwwwwwwwwwwwwwwO<,OwO,<Owwwwwwwwwwwwwwwwwwww",
"wwwwwwwwwwwwwwwwwwwwwOOOOwOOOOwwwwwwwwwwwwwwwwwwww",
"wwwwwwwwwwwwwwwwwwwww@6:@wX-;Xwwwwwwwwwwwwwwwwwwww",
"wwwwwwwwwwwwwwwwwwwwoo6:@wX-;oowwwwwwwwwwwwwwwwwww",
"wwwwwwwwwwwwwwwwwwwo>8o6@wX;o8>owwwwwwwwwwwwwwwwww",
"wwwwwwwwwwwwwwwwwwwo88o6@wX;o88owwwwwwwwwwwwwwwwww",
"wwwwwwwwwwwwwwwwwwwoooooowoooooowwwwwwwwwwwwwwwwww",
"wwwwwwwwwwwwwwwwwwwwwwwwwwwwwwwwwwwwwwwwwwwwwwwwww",
"wwwwwwwwwwwwwwwwwwwwwwwwwwwwwwwwwwwwwwwwwwwwwwwwww",
"wwwwwwwwwwwwwwwwwwwwwwwwwwwwwwwwwwwwwwwwwwwwwwwwww"
};
