/* XPM */
static char *background[] = {
/* columns rows colors chars-per-pixel */
"50 50 36 1 ",
"  c #020300",
". c #030300",
"X c #020301",
"o c #030301",
"O c #030302",
"+ c #030303",
"@ c #040200",
"# c #040300",
"$ c #040301",
"% c #050301",
"& c #050302",
"* c #060302",
"= c #020400",
"- c #020401",
"; c #030401",
": c #020501",
"> c #030402",
", c #030403",
"< c #040401",
"1 c #040402",
"2 c #050402",
"3 c #040502",
"4 c #040403",
"5 c #050403",
"6 c #040503",
"7 c #050503",
"8 c #060402",
"9 c #060403",
"0 c #070403",
"q c #060503",
"w c #070503",
"e c #040404",
"r c #070504",
"t c #060604",
"y c #090403",
"u c #080404",
/* pixels */
"++e+++===<==<===<=t===<t===<<=t<=tt<tettt<t<t=<<et",
"++++++=<e<<<=<t==<===t<=<====t=ttt=ttttetttt=tttt=",
"++++++e$<===e<=<==<<===6<==t<==<t<et<ttttt=<<t=t<=",
"++++++ee=ee=<==<<=t=6<==t=<=<==t=<t<t<=t=tt<ett<<t",
"++++++++e++==<<==t=<=<=<<t<<===<t=<=<t=t<tt==t<t=t",
"+++=++++ee+=t<=<===t=66<<<ttt=<=<<ttt<=<=tt<=tt<tt",
"++++++++eeee==<=<<6=<===t<e<<<<<=<t<==<=<et<e<ttet",
"e=++++++=ee=<=e==<==t=<6=<u<u<<====t=<t==t<tt<t=<t",
"+$ee+++ee+++<=<<=<<==+++t<<u$$$$=<=<<<t==<<=<tt<t<",
"+e+e++e=+++==<<=<=<<<++$=tu<<u$<<<<<te<=<=t=t=t=<t",
"++++e+=eee+=<<<<=<<=<=$y<<uu$yu$<=<<<<=t=tet<t<t<t",
"=+++eeee+e==<$<$<<=<<<$$<<<<eeu$<<<<=<<===t=<=t<tt",
"=e<<e=<e++e+=<$$<<<<$$$y$$$$ueu$u$$<=6<===<6<6=t6t",
"<=<=e==e++e<=<y$<<<<$$$$$y$y$ueu<u$$=<==<<===6t=t=",
"<=<e<=<e+++==<<$$$<<$$y$$ye$yeu<<<<<=t=t==<6=<<te<",
"=<<==<<====<<<$$y$$y$$$$$$y$$u<uu<<<<=<=<t===6==tt",
"==t<==<=<=<=$$$$$$y$$y$$$y$$uey$u$$$$$<=<<=<<=<=<<",
"<t==t=t<<<=<$$$$$$$$$$$$$$y$$uye$yu$$+==<==<==<6eu",
"<<=<=<<==<<=$$$y$$$$y$$$$$y$$y$uueu$+++==<<==t<e<t",
"=t=t<=<<<=<==$$$$$$y$$$$$$$y$e$$e$u$$++=<=<<=6<=te",
"=t<=<<<<<==e+$$$y$$$$$y$$y$$y$$yey$$$$$$<=<<<<<=<t",
"te<<<<<e<<<=+$$$$$$y$y$$$$$$$$$$$y$uy$$$te<<<<<<<<",
"tt<uu<u<<<<=$$$$$$$$$y$$$$$$$$$$$$$$$$y$<<uuuu<<=t",
"<reeeu<u<<6<$$$$$y$$$$$$$+$$$$$y$y$u$$e$<<<$<<<<<<",
"t<u<<u<u$$$$+$$yy$$$$$$$$+++++++$$$$$$$u$$$$$$$$t<",
"t<<uu<$<$y$y$$$$$$$$y$$y$+++++$$$$y$$yyeyy$$$$$y<<",
"<<u<uuu$$e$$$$$$$$$y$$$$$+++++$$$y$y$$yu$$y$$y$$ue",
"<u<u$e$uu$uy$$y$y$$$$$$$$++++++$$$$$$y$$$y$$$$$$<u",
"<$$y$u<ueu$e$$$$$$$$$$$$<===+==$$$$$u$eu$u$e$y$yu<",
"<$$$ueu$u$u$$y$$$$$$$$$$<<==+=+$$$$ye$y$u$$y$$$$<u",
"<<$$$<<uy$$uy$$$++$$$$++<<==++++++$$$$euu$$$$$<<u<",
"<<$$yue$eu$$y$$$+++$$$===<==++++$$$$$y$u$$$yy<<u<<",
"<=<<y$uu$ueu<e$$==<<<<$=+=+=++++++=$$y$y$$y$$$$$u<",
"e<<<$<$<u$u$u$$y<===$$$=+=++====++=$$$$$$y$$$$$y$$",
"e<<u$u<ueueue$$$<<==y$$=+=++==<====$y$$$$$yyy$$$u$",
"<<<$<u<<u<u<yy$y$<<=+++++++++==<=+++$$$$$$$$$$y$<<",
"e<u<<u<u$u$e$$$yy$$+==<=++++++=<====<<$y$$$$$$$y<u",
"t<<<u<ueu$yueye$$$=+=<==++++++===<<=<<$$$$$yy$$eeu",
"et<ueu<ueuu$$$y$$$<=+===+++++===<<=<<$$$$$$$$$yyu<",
"t<ueu<u<u$e$y$$y$$$<=<==+++======<<=<<$y$y$$$ye$<u",
"<e<u<u$eeu$ue$$$<<<=<=<====<==<==<==<<=t$$$y$y$uu<",
"<<uuueuuu$y$y$y$=6<<=<======<6<=t=<=====$$$$$$$$<u",
"ueueu<u$$$$$$y$$=<<=<=======6==<===tt==<$e$$$$ueu<",
"tu<ueu$$euy$$$$$<=<==<<=<==6<====<<<==<=$$y$$yeueu",
"<eu<<ueu$yy$$$$$<=<====<=<=<<<6t<=====<e$$u$yy$uu<",
"t<utueu$$$$$$y$$=<=t<=t==<<==<===t<<<<<=<$$y$eu$<u",
"te<<<ueuu<<<$$$$==<==<<<=<=<====<<=t<<=<<<$e$yeuut",
"t<<uu<u<u<<==+++=t=<===<=<=<t=<=====<<e=<<$$ueu$eu",
"<t<u<u<u<t<<t==<6=<6===<==<=t==tt=<<<u<e<<<<u<uueu",
"t<e<u<<<<e<<<=<====<=<<=t==<==<<=<=te<uut<t<<uuuut"
};
