/* XPM */
static char *brick[] = {
/* columns rows colors chars-per-pixel */
"50 50 49 1 ",
"  c #070809",
". c #0B0D0E",
"X c #0E0F10",
"o c #0F1011",
"O c #121415",
"+ c #141718",
"@ c #16191B",
"# c #1A1C1D",
"$ c #1A1F21",
"% c #1D2225",
"& c #1E262A",
"* c #1F282D",
"= c #212425",
"- c #21272A",
"; c #232A2D",
": c #262E31",
"> c #282F33",
", c #263135",
"< c #2A3236",
"1 c #263339",
"2 c #2C3539",
"3 c #2E383C",
"4 c #303A3D",
"5 c #2E3C42",
"6 c #2F3E48",
"7 c #323E43",
"8 c #324147",
"9 c #34444B",
"0 c #38474D",
"q c #36484F",
"w c #38484F",
"e c #354651",
"r c #374A52",
"t c #3A4C54",
"y c #3A4E59",
"u c #3D5057",
"i c #3D525B",
"p c #3F5461",
"a c #40565F",
"s c #415760",
"d c #435B64",
"f c #455F69",
"g c #46606A",
"h c #48636E",
"j c #4A6570",
"k c #4C6A75",
"l c #4E6D79",
"z c #52727F",
"x c #527380",
/* pixels */
"@#@@@+OOOOOo...@OoooX..o%###++ooO....-%%$#@OOXX...",
",22222222<<<%oX:*;;;-%@o3*;;*;;;--$.O04744743332%.",
"2<<<<<<<<>::-OX,;:<<<2<+82<<<<<<<>:oO9:>>>><22332O",
"5;;;;;;;;;;;;#o3:222323#9<22222322<Oo9%%%%=---;-;O",
"8;&&;;;::::<<%o9<224434%u4433444542$Oi%%%%%---*--+",
"r92222<2<1222;Ou8222222%g7734444334%+k<-%--;-;;-;@",
"3iiuttq98332<-O4it9842<%zjiq9844333-+xht993>:::*;$",
"&*--&-%%%%%#O.OOOOOOOOO+39888331,:;$X247555552,::#",
"12222222<<2<;o+=#@++ooXo@3<<<<<:>>;=.oO+OOOOoOOoX.",
"1<:,:<:::::;=++>;;;:;==o@3;;;;:;;;>>=.##@@OOOo....",
"3;-;;;;;;:;;;=O<;><<<2<O@3;;;;;;;;;;=o4--:=----%@X",
"9;--;;:,><<<2=#4:222444##8,:>>><<<<>;O7<<<<<::;<:X",
"tduqq98332222:O0<242442##t222<<2<<22>O0<<2222222>@",
"%,,,,,:,:::;;=#at44222<=#a222222<<>>>oa4443444443%",
",&&%%#@Xo++++##2008742<=#j2<2<<<<2<<<@f4444242423=",
",*::::<;oOOOOOooOOOOoOO+#za422222<44<=kf004444433:",
"2><<2222$+++ooo..o....  @pgaaaww00044;0auttq87721;",
"9;443333*++@@@@+++++++O.@$###=####@#@>;;=%%##+OO..",
"i22222221$@@@@+++##+@@@X@$######++++@2>;;<::>><<+.",
"ghaut9855*@@@@++O+++@@@.$<:--===%=#Oo4;;;;;-;;;;$.",
"XooOoOOO1*@@@++@@@O@@@@.=4>>>>>:;:;=O4;;;;-:;::;-.",
"OoX...oo15+++@++#@@+@@@o=722222<222<@0<<222<<2<<>X",
":;--&%@X1y,$@@++@@@@@@@o=w2444444442%t22222222<2<o",
",;;:,11*1ppyee8831,,**%@=a4422442332=f<<2<<<>>:::o",
"2,222222o+OOOOOOOO++++++=lu744444444;l72223222323+",
"8<244442O&+OOoOOoooXX...ohhhgaaw0044<zkar96777433$",
"i2<<2222@:++@@@@++++O++o.=#####@+++++:<<2<:,:::-&+",
"dgiuw874@1@@@@@+O#@++#@+.3<<>>>>>:>:-@X+#@OOoX.XX.",
"OOXoXXXoO8@++++++++++@@+X82<2222<<<<>-O+:;;;;-=+.X",
";----%#OXe%+@+O+@@@O+@@+.7>::::;;::;;-O@<;::>><<X.",
",-;>:<<:ot*@+@++@@@++@#+X0=;=;=:;;;:>>$O3;223233+.",
"<<<22222Oi9*$@@@@@@@@@@+Xu>;>>>><<22<<%O9<233333@X",
"8,244444@taaw0e63311,;&%Ofjgdaauw98874;+a4<22222#.",
"u3<22222#O++###@##@+OOOO%%-%=$##@+OO###+8auw872<$.",
"tgiuq872%O++2:;;---=-%#.2--;-;;=--=X+++OOOOOoXooXX",
"O+@+OOOOO.Oo7>>>><<>,;:@7<<2<2<<<<;@=---==%%%$%#o.",
"1;;;;---==$.7>22<222222$8<222222222$22222222<22<&O",
"3<<<<<,<>:;@e3334444444;q4444444444;2<,<>>><,;;;*+",
"52<2<222322%a7344424422,i9444442444:3;;;-;-;;-;;:$",
"93334344373;sjw77444444<dkiw8844444<8;--;;<;<<221&",
"a7444333322:7syatw98842<,888853211,,rfrq088323311,",
"ajr977374472OOOOOOO++-22,::;&-%=O Oo&1113<1,;*&&&$",
"<tttr067772>+OOOOOOOO;;;;;;:::<::X%OOOOOooooooX.  ",
"OoXXXXoo:32<>:;--%%@.-;;;;;;-;--*O*++@@++++++OOOO ",
":---==$o,32744444444%,<;:,;<::<<,$1@@@%@++@@@+@@@.",
"<:::>>>>1;---;;;;,<<;2222<2<2<<<2%8$+++O+++@O+@@@ ",
"2:<<22225;$-=$==----%3442222<<2<,&8%@@+++@@@++@@+ ",
"9>27444766-&$==;;--&&89<<<<<<<<<,&e*++@++@@@++@@@.",
"i3<<32229h1;;;;;;----8j522<222222<qe;%++++@+@@+@+X",
"ifite9737lkjfdprr99538zlhdduuttw959iiyee955111*&$+"
};
