/* XPM */
static char *door[] = {
/* columns rows colors chars-per-pixel */
"50 50 227 2 ",
"   c #03060C",
".  c #140909",
"X  c #110E11",
"o  c #2E1D18",
"O  c #2C211C",
"+  c #3F2B1D",
"@  c #1E2224",
"#  c #2B2A25",
"$  c #3C2B21",
"%  c #3E2E2B",
"&  c #372822",
"*  c #37312D",
"=  c #3A322C",
"-  c #3E3027",
";  c #3A3431",
":  c #393832",
">  c #2F3331",
",  c #4E1F0A",
"<  c #541E08",
"1  c #542204",
"2  c #54230A",
"3  c #582409",
"4  c #582707",
"5  c #4C2D1C",
"6  c #482A1A",
"7  c #532A16",
"8  c #5C2D13",
"9  c #542E1B",
"0  c #5A2E1B",
"q  c #542411",
"w  c #53321D",
"e  c #5D331C",
"r  c #5E3519",
"t  c #4D2915",
"y  c #612F13",
"u  c #682F16",
"i  c #653216",
"p  c #63331A",
"a  c #66391A",
"s  c #6B3B1C",
"d  c #69381A",
"f  c #703B1E",
"g  c #442D23",
"h  c #4B2F22",
"j  c #442D28",
"k  c #5C2E22",
"l  c #522F21",
"z  c #443226",
"x  c #4C3225",
"c  c #44352C",
"v  c #4B352B",
"b  c #4D3A2D",
"n  c #533424",
"m  c #5A3522",
"M  c #533A26",
"N  c #5B3924",
"B  c #533629",
"V  c #543C2C",
"C  c #5B3B2B",
"Z  c #5B3728",
"A  c #453531",
"S  c #483530",
"D  c #433D33",
"F  c #4C3A31",
"G  c #583E34",
"H  c #633323",
"J  c #653A23",
"K  c #6A3C22",
"L  c #633C2B",
"P  c #6B3E2A",
"I  c #683223",
"U  c #713E2B",
"Y  c #703D23",
"T  c #53402E",
"R  c #5C412E",
"E  c #494438",
"W  c #544434",
"Q  c #5C4432",
"!  c #564A37",
"~  c #5B4B36",
"^  c #554C3A",
"/  c #594C3A",
"(  c #52463B",
")  c #5D523D",
"_  c #6C4224",
"`  c #65422A",
"'  c #6B432B",
"]  c #6E4A2D",
"[  c #674025",
"{  c #734325",
"}  c #7A4B26",
"|  c #72452B",
" . c #79462C",
".. c #744B2D",
"X. c #7B4C2C",
"o. c #754827",
"O. c #7D512D",
"+. c #634533",
"@. c #6B4532",
"#. c #644A34",
"$. c #6C4B33",
"%. c #694C3A",
"&. c #714531",
"*. c #794731",
"=. c #734B33",
"-. c #7B4D32",
";. c #754B3A",
":. c #695139",
">. c #735235",
",. c #7B5334",
"<. c #74533A",
"1. c #7C5539",
"2. c #75583E",
"3. c #7D5A3C",
"4. c #7E5833",
"5. c #384C53",
"6. c #33626A",
"7. c #5C4E4B",
"8. c #5C5745",
"9. c #515351",
"0. c #695942",
"q. c #715842",
"w. c #695C54",
"e. c #49615E",
"r. c #7D694A",
"t. c #7B6546",
"y. c #456867",
"u. c #7C7B64",
"i. c #747E6C",
"p. c #646160",
"a. c #834B2D",
"s. c #87482C",
"d. c #81522E",
"f. c #88532D",
"g. c #844B31",
"h. c #844E3D",
"j. c #835432",
"k. c #8C5434",
"l. c #825A35",
"z. c #8B5A34",
"x. c #82563A",
"c. c #8B533A",
"v. c #845B3B",
"b. c #8B5D3B",
"n. c #915C3C",
"m. c #935C38",
"M. c #8D643D",
"N. c #92633D",
"B. c #9A633C",
"V. c #966B3D",
"C. c #9B6B3D",
"Z. c #996232",
"A. c #A3733E",
"S. c #C65B1C",
"D. c #D37432",
"F. c #875742",
"G. c #955B46",
"H. c #874941",
"J. c #866343",
"K. c #8C6341",
"L. c #8C6A44",
"P. c #886C4B",
"I. c #866A4A",
"U. c #936442",
"Y. c #946A43",
"T. c #9C6D45",
"R. c #926B49",
"E. c #9B6E4A",
"W. c #9A6547",
"Q. c #9E7345",
"!. c #9C724B",
"~. c #92744D",
"^. c #987852",
"/. c #9C6553",
"(. c #B26E42",
"). c #A27444",
"_. c #A47944",
"`. c #AA7C47",
"'. c #A3744C",
"]. c #A57A4D",
"[. c #AA7C4C",
"{. c #AA7643",
"}. c #B17B4A",
"|. c #A66856",
" X c #A37651",
".X c #A57C52",
"XX c #AA7D53",
"oX c #A87A58",
"OX c #A06F40",
"+X c #3D8A7E",
"@X c #6A807D",
"#X c #AD824C",
"$X c #B2844C",
"%X c #B48A4F",
"&X c #B8884E",
"*X c #AC8354",
"=X c #AD845A",
"-X c #AE8B5A",
";X c #A98754",
":X c #B18653",
">X c #B38B54",
",X c #B0875B",
"<X c #B28C5A",
"1X c #B89356",
"2X c #B09061",
"3X c #C08D53",
"4X c #CE8B4D",
"5X c #577C85",
"6X c #5E9996",
"7X c #6B9494",
"8X c #5E9CA8",
"9X c #4EAAE2",
"0X c #57BAEB",
"qX c #4FB1EB",
"wX c #70A3EA",
"eX c #74CDD9",
"rX c #7CD3DD",
"tX c #68C3DF",
"yX c #56D0EC",
"uX c #74D6EB",
"iX c #64CAE8",
"pX c #76E3ED",
"aX c #6FE2EE",
"sX c #84969B",
"dX c #82A5E3",
"fX c #89D4DD",
"gX c None",
/* pixels */
"gXgXgXgXgXgXgXgXgXgXgXgXgXgXgXgXgXgXgXgXgXgXgXgXgXgXgXgXgXgXgXgXgXgXgXgXgXgXgXgXgXgXgXgXgXgXgXgXgXgX",
"gXgXgXgXgXgXgXgXgXgXgXgXgXgXgXgXgXgXE 0.u.u.u.u.~.u.u.u.u.i.8.gXgXgXgXgXgXgXgXgXgXgXgXgXgXgXgXgXgXgX",
"gXgXgXgXgXgXgXgXgXgXgXgXgXgXgX: ) 8.r.%X$X$X$X$X;X$X$X$X$X$X>XI.:.8.^ gXgXgXgXgXgXgXgXgXgXgXgXgXgXgX",
"gXgXgXgXgXgXgXgXgXgXgXgXgXgX# ) ;X:X].].T.b.U.Y.XX].T.R.l.V.].].>X<X) # gXgXgXgXgXgXgXgXgXgXgXgXgXgX",
"gXgXgXgXgXgXgXgXgXgXgXgXgX) -X>X;X_.o.J ' L h n ;.` Z g ` _ [ { T.*X>X<X) : gXgXgXgXgXgXgXgXgXgXgXgX",
"gXgXgXgXgXgXgXgXgXgXgX: 0.<X<X[.d.X.-.P B v c L x z =.Q c V m ,.-.-.*X>X;XP.: gXgXgXgXgXgXgXgXgXgXgX",
"gXgXgXgXgXgXgXgXgXgX# r.1X>XY.Y H.B B V F b #.W.@.T =Xv.v x v V V g. .4.<X>X^.@ gXgXgXgXgXgXgXgXgXgX",
"gXgXgXgXgXgXgXgXgXgX: -X:XY.e F.;.x G ;.!.J.:.=X-.R =Xb.C =XJ.G v C H.L O.XX-XE gXgXgXgXgXgXgXgXgXgX",
"gXgXgXgXgXgXgXgXgXE ;X>XQ.v.' V z 3.*X].Q.4.` ,X1.V ,XM.J Q.'.*XJ.V % z b.j.>X-X: gXgXgXgXgXgXgXgXgX",
"gXgXgXgXgXgXgXgX> ^.>X].o.Y.+.v K.*X} d 4 2 a XX,.C {.a.2 < 1 } Q.~.b z  Xd.N.<X2XE gXgXgXgXgXgXgXgX",
"gXgXgXgXgXgXgXgX> >X>X} L.R.6 R M.d.4 3 a #.C n.] x c.-.` ,.4 < s d.=.g #.].} #X<XE gXgXgXgXgXgXgXgX",
"gXgXgXgXgXgXgXgXt.-X].} 3.+ $ =.d 2 y } =XK.6 Z g & h h x Q.,X{ 8 8 1.g g #.M.M.-Xr.gXgXgXgXgXgXgXgX",
"gXgXgXgXgXgXgX^ >X>XX.] Q z ' m 8 4.,X=XT.-.h *.L g ;.P n v.'. XE.P 5 ' C $ >.o.#X>XgXgXgXgXgXgXgXgX",
"gXgXgXgXgXgXgX^ >X>XM.' - B n.L ] F.v.X. .' n c.L h g.*.n  .a.v.b.=.7 c.=.$ ` { _.%XgXgXgXgXgXgXgXgX",
"gXgXgXgXgXgXgX! $X$X{ =.= B n.Z q 3 3 3 2 2 n c.P h k.*.6 1 < < < , 6 c.-.$ &. .OX$XgXgXgXgXgXgXgXgX",
"gXgXgXgXgXgXgXgXC.z.a.-.- V n.C J _ p Y J 9 B n.P B T. .h Y Y 8 p 5 h W.-.z ' a.s.V.gXgXgXgXgXgXgXgX",
"gXgXgXgXgXgXgXgX&X X[.!.= V  X` l.'.1.T.r 2.n Y.| b ,X-.+.'.'.K -.:.b '.-.z L.[.`.}.gXgXgXgXgXgXgXgX",
"gXgXgXgXgXgXgXgX>X$X`.~.- Q <XP | .X=.T.8 2.n ].,.V ,Xv.m '.'.0 l.>.M '.c.c L.].$X(.gXgXgXgXgXgXgXgX",
"gXgXgXgXgXgXgXgX&XV.] +.= Q >XL U XX=.E.8 4.Z ;X3.V <XK.k '.'.p j.,.N [.b.S R } C.(.gXgXgXgXgXgXgXgX",
"gXgXgXgXgXgXgXV }.{.,.:.; Q *X' U XX=.'.8 1.Z =XJ.V <XK.k ].'.0 j...N *Xb.S 0.4.).(.C gXgXgXgXgXgXgX",
"gXgXgXgXgXgXgX~ &X&X..I.; Q *X` ' XX=.).8 1.N ;XK.T <XU.k ]. Xe k.-.N *XL.c P...>X}.Q gXgXgXgXgXgXgX",
"gXgXgXgXgXgXgX~ &X`...+.= +.<X' U XX=.'.8 x.N =XJ.V <XK.H '. Xp j.-.w ].-.D >.o.#X>XW gXgXgXgXgXgXgX",
"gXgXgXgXgXgXgXW A.V.j.+.: G <X` | XX=.T.2 ] m =X1.R <XF.0 ]. Xp } | m Q...A ] } T.].b gXgXgXgXgXgXgX",
"gXgXgXgXgXgXgXD L.Y.!.P.; R *X[ U W. .N.4 ] N *X] Q <XK.0 '.!.0 s K e [.1.c L.].M.L.A gXgXgXgXgXgXgX",
"gXgXgXgXgXgXgX^ >X1X>X^.= Q *XP &.m.d a 1 ..m [.' Q <Xv.0 Y.O.8 { s m :Xv.c ~.1X<X1XW gXgXgXgXgXgXgX",
"gXgXgXgXgXgXgX^ %X#XO.` = #.*X` | k.Y g.1 =.N .X| Q *Xl.p N.g.8  .p N *XQ.F ` } <X>X( gXgXgXgXgXgXgX",
"gXgXgXgXgXgXgX! >X_...@.: R C.' 6 0 7 9 5 5 R [...Q *Xx.V w n n n 5 w ].U.F ` o.).1XE gXgXgXgXgXgXgX",
"gXgXgXgXgXgXgX! %X>X>.2.: C z.` ;.b.x.>.;.2.O z O O b c 0.3.1.<.>.>.V N.,.S J.' $X>XW gXgXgXgXgXgXgX",
"gXgXgXgXgXgXgX/ >X#X] :.; g k 9 |  X X X XR.    X   X p.g  X X X X'.C 0 m S 3._ ].:XE gXgXgXgXgXgXgX",
"gXgXgXgXgXgXgX! :X#X} #.S L |.L K j.k.k.j.1.. . . . X = o k.j.j.j.l.n G.c.v ` o.z.#X( gXgXgXgXgXgXgX",
"gXgXgXgXgXgXgX! >XA.O.I.A Z |.L 8 a a a a p a U J e K K p s s s s s l |.F.S L.j.T.).T gXgXgXgXgXgXgX",
"gXgXgXgXgXgXgX! >XC.O.2.c C |.C h 6 5 5 5 5 m X.P w -.J C 5 5 9 w 5 5 G.h.S t.4.M.{.T gXgXgXgXgXgXgX",
"gXgXgXgXgXgXgXV A.$Xj.$.= C /.C +.^.@.q.2.Q x =.C x &.n b ~.<.P.R q.V G.H.A :.4._.>X! gXgXgXgXgXgXgX",
"gXgXgXgXgXgXgX/ $X>XO.2.; z B v :.=X>.;Xp v.g Z n z R V C ^.,.=Xp v.V B B S 3.O._.>XW gXgXgXgXgXgXgX",
"gXgXgXgXgXgXgX/ *X%Xl.$.= v F.C =.*X,..Xe 1.Q '.=.T *X,.N ;X..=Xu j.N 3.=.c ~...{.:XW gXgXgXgXgXgXgX",
"gXgXgXgXgXgXgXgXB.B. .` ; V .X' ' *X,.*X8 ,.C XX] T -X3.C .XX.=Xi X.M E.1.b ] X.f.m.V gXgXgXgXgXgXgX",
"gXgXgXgXgXgXgXgXO.j.d.>.; V *X] | B.,.].8 ,.' >X=.R ;Xv.9  X{ =Xu -.w *Xl.v ` } } ..v gXgXgXgXgXgXgX",
"gXgXgXgXgXgXgXgX#X`.#X~.* M <X$.' B.| !.8 J ` -X>.R ;XM.9 Q.d oXi  .0 ,X!.S M.$X{.[.0.gXgXgXgXgXgXgX",
"gXgXgXgXgXgXgXgX1X1X1X;X* V >X] ' B.o.E.8 a [ -Xx.R ;XL.0 E.d '.y Y 0 XXL.b M.1X>X>X:.gXgXgXgXgXgXgX",
"gXgXgXgXgXgXgXgX%X%X%X^.* M ;X` ' G.o.!.8 J [ >X4.#.;XK.9 U.d Y.y d 0 E.,.S N.>X>X>X! gXgXgXgXgXgXgX",
"gXgXgXgXgXgXgXgXV.V.V.V.* M !.$.N p t 7 7 7 $.].1.Q ].X.n 0 0 w 0 9 9  X,.b v.T.C.C.! gXgXgXgXgXgXgX",
"gXgXgXgXgXgXgXgX4.4.l.3.* M U.' =.F.;.' ' +.L Q.| B f.| C 1.3.;.%.%.B n...v :.x.4.x.A gXgXgXgXgXgXgX",
"gXgXgXgXgXgXgXgXO.{.&X.X% n s.I ' E.E.oXoXR.m m.P x K m N m.XX X X!.N g. .S .X4X`.j.c gXgXgXgXgXgXgX",
"gXgXgXgXgXgXgXgXM.Z.Z.Y.j n s.H m g.a.n.a.} k s.K z L N N X.d.d.d.g.H g. .D m.Z.l.z.v gXgXgXgXgXgXgX",
"gXgXgXgXgXgXgXgX}._.4.;.% n s.I 0 u u u u p k s.P n s.U 5 y y 8 y y 7 s. .S <.q.L.*XW gXgXgXgXD.gXgX",
"gXgXgXgXgXgXgX/ 1X1Xz.;.% n s.I 3 3 < < < < t Y L n s.| 2 1 1 < < 1 q g. .S =.j.>X:XW gXgXgXS.D.gXgX",
"gXgXgXgXgXgXgXD Y.Y.-.@.% V C G R C G C G V b G +.W %.%.V C V V V b b V b F @.-.N.N.v gXgXD.D.gXgXgX",
"gXgXgXgXgXgX6.y.w.G 7.9.5XfXrXrXpXpXyXyXqX0XqXwXdXuXuXiXeXeXpXaXyX0X0X9XtX7X9.( 7.w.e.gXS.4XgXgXgXgX",
"gXgXgXgXgXgX6.6X@X5.sXy.8XgXgXgXgXgXgXgXgXgXgXgXgXgXgXgXgXgXgXgXgXgXgXgXgXgXgX5.6X7X7X6XgXgXgXgXgXgX",
"gXgXgXgXgXgXgXgXgXgXgXgXgXgXgXgXgXgXgXgXgXgXgXgXgXgXgXgXgXgXgXgXgXgXgXgXgXgXgXgXgXgXgXgXgXgXgXgXgXgX"
};
