/* XPM */
static char *ground[] = {
/* columns rows colors chars-per-pixel */
"50 50 225 2 ",
"   c #657938",
".  c #6D7D4C",
"X  c #67764D",
"o  c #727F4F",
"O  c #636B5A",
"+  c #6D7B54",
"@  c #69745A",
"#  c #677356",
"$  c #717C5B",
"%  c #717C56",
"&  c #646960",
"*  c #6B7268",
"=  c #73727A",
"-  c #71756F",
";  c #6C882F",
":  c #68842D",
">  c #6D8534",
",  c #6E8833",
"<  c #6E843A",
"1  c #708736",
"2  c #718B35",
"3  c #72863B",
"4  c #748B3C",
"5  c #798C3E",
"6  c #79873E",
"7  c #76903B",
"8  c #7B933E",
"9  c #769236",
"0  c #6E8245",
"q  c #728542",
"w  c #768B42",
"e  c #7A8D43",
"r  c #75854A",
"t  c #76894A",
"y  c #7B8C4B",
"u  c #7A854C",
"i  c #7D9243",
"p  c #7E924A",
"a  c #7B9445",
"s  c #7C8C53",
"d  c #76835C",
"f  c #7C8B5B",
"g  c #768258",
"h  c #7F9152",
"j  c #7A8663",
"k  c #82983F",
"l  c #818E4D",
"z  c #808F47",
"x  c #819544",
"c  c #849944",
"v  c #899C47",
"b  c #82944B",
"n  c #849A4C",
"m  c #8A9C4C",
"M  c #818E53",
"N  c #838C5B",
"B  c #849453",
"V  c #899552",
"C  c #869A52",
"Z  c #8A9C54",
"A  c #85945B",
"S  c #8A955C",
"D  c #8B9A5C",
"F  c #85985A",
"G  c #909C5F",
"H  c #8EA04A",
"J  c #8AA154",
"K  c #92A15E",
"L  c #94A157",
"P  c #848F64",
"I  c #8A8C63",
"U  c #848E6D",
"Y  c #869363",
"T  c #8B9564",
"R  c #8D9A64",
"E  c #85926C",
"W  c #8C946B",
"Q  c #8E9A6A",
"!  c #929D65",
"~  c #92966D",
"^  c #939C6C",
"/  c #999D6C",
"(  c #979867",
")  c #848B7E",
"_  c #838D73",
"`  c #918F74",
"'  c #8C9573",
"]  c #8D9579",
"[  c #8E987B",
"{  c #8A9671",
"}  c #929674",
"|  c #949C73",
" . c #9B9C74",
".. c #94967C",
"X. c #949B7A",
"o. c #9A9C7B",
"O. c #999779",
"+. c #A39E7A",
"@. c #8FA160",
"#. c #94A16A",
"$. c #9AA36B",
"%. c #93A162",
"&. c #96A075",
"*. c #9CA274",
"=. c #97A07D",
"-. c #9CA27A",
";. c #A2A47C",
":. c #A3A87E",
">. c #A4A379",
",. c #7C7886",
"<. c #877C89",
"1. c #878A85",
"2. c #928C89",
"3. c #8D9383",
"4. c #949A83",
"5. c #9C9D83",
"6. c #90958C",
"7. c #949B88",
"8. c #9C9C8B",
"9. c #979786",
"0. c #898493",
"q. c #968C98",
"w. c #9D9C93",
"e. c #9D929A",
"r. c #9B999B",
"t. c #959895",
"y. c #A29E84",
"u. c #A29D8A",
"i. c #A99F8E",
"p. c #A49D93",
"a. c #A4939C",
"s. c #A49E9B",
"d. c #A79A99",
"f. c #9DA283",
"g. c #9CA28A",
"h. c #9EA198",
"j. c #A3A384",
"k. c #ABA585",
"l. c #A5A38B",
"z. c #AAA38D",
"x. c #ABA98C",
"c. c #ABA986",
"v. c #B3A48C",
"b. c #A4A292",
"n. c #ABA494",
"m. c #ABAA93",
"M. c #A5A299",
"N. c #ACA49C",
"B. c #ADAA9B",
"V. c #B3A593",
"C. c #B3AC95",
"Z. c #B3A79D",
"A. c #B3AB9C",
"S. c #BBAD9D",
"D. c #BAAA95",
"F. c #B7B19C",
"G. c #9A99A3",
"H. c #A39AA4",
"J. c #AB9DA9",
"K. c #A597A4",
"L. c #B49DA6",
"P. c #A59FB0",
"I. c #A5A1A6",
"U. c #ADA5A3",
"Y. c #ADABA3",
"T. c #A3A1AC",
"R. c #ADA5AC",
"E. c #ACA9AB",
"W. c #B2A5A4",
"Q. c #B3ABA3",
"!. c #B3A4AC",
"~. c #BAA5AD",
"^. c #B5ACAA",
"/. c #BBACAC",
"(. c #BCABA3",
"). c #B9B1A4",
"_. c #BCB3AB",
"`. c #BFBCAB",
"'. c #A4A1B2",
"]. c #ACA7B1",
"[. c #AFABB3",
"{. c #AAA6B8",
"}. c #B4A5B3",
"|. c #BBA6B2",
" X c #B5AAB3",
".X c #BCABB5",
"XX c #B5AAB9",
"oX c #BCACBA",
"OX c #BDB3B1",
"+X c #BDB2BB",
"@X c #B7B0B6",
"#X c #C0AC9B",
"$X c #C4ADAC",
"%X c #C2A9A5",
"&X c #C3B2AD",
"*X c #C0A7B1",
"=X c #C1ACB4",
"-X c #C9AEB0",
";X c #C2AEBA",
":X c #CAAEBA",
">X c #C3B3B6",
",X c #CAB3B1",
"<X c #C4B2BD",
"1X c #CCB3BC",
"2X c #C8B8BC",
"3X c #D1B2BD",
"4X c #D2B9BE",
"5X c #D2B2B6",
"6X c #C4B4C2",
"7X c #CBB5C3",
"8X c #C6BBC2",
"9X c #CDB9C6",
"0X c #CBB6C8",
"qX c #CCBBCB",
"wX c #C5B8CA",
"eX c #D1B5C4",
"rX c #D2B9C4",
"tX c #D1B7C9",
"yX c #D1BCCD",
"uX c #CDBED1",
"iX c #D1BED1",
"pX c #CEC0D2",
"aX c #D2C1D3",
"sX c #D6C5DB",
"dX c #DAC0CD",
/* pixels */
"#X0XXXyXqX:XeX8XG.g w 4 c @ d m :.0XyXoX].^ e n i e w p n p A W.<.wXg.6XpXn C i S /.~.7X8.i x a i 5 ",
"Q ^.;XeX7X>X6X*.b e 4 4 e C e t a.:X|.eX/.] v b y 7.s a v s 3 h b.eXU.6X3XR l p :.I.B.:X=Xj.v n i B ",
"~ + K.%Xm.&Xs R 5 n b w p 5 R 7XeXiX6XuXW ..$ 8 3 f.g.Y v < p F d R.E.oX-X= = 2X:XX.e ~ |.B.>.s A Q.",
"~.o.Q.0X2XF.w B x Z b a Z 5 4 x.0X6X1X9.' 5. X .b 4.0 > 9 < 4 h & oX4XJ.7X1X<XwXqXy G.R.oXaXA.q j.;X",
"B.o.A.7XoX~.y 5 x x t | a 8 5 e ^ u.e e o.oXoXA.C S z 3 4 , 7 H y 0.;X<XsX6X.X|. XW.;XyX~.+X%Xi _.8X",
"3 i 5 W ^.5.4 4 9 3 a p e 4 2 5 w y 8 e u.qX:X~ p n Z y j.F ;.m.} U &X6X=X6X;Xu.T I.|.iX_.P.3 i b Z ",
"3 , e y e ^ b 3 2 p c.V | ..7 , i V v x V.F.B p | '.S.qX XL.aXyXuXW.Y - s.J.1XQ e S ~.oX0X/ 5 > 3 q ",
"[ 8 a 7 5 t S W ^ _.iXM.l.N.q e a i t 4 i a g   S j.1XsX.X1X=XoXZ.~ 1 , e XXx.i e 4 >X=X<XY 3 2 i t ",
"c v a v i 5 /.9XR.;X|.oXL.V.b t n a i e C y F 8 5 ^ u.*.V C.8.Z b n c 5 l ,Xj.! 4.p 1XN. X>X4 c 8 n ",
"V n a n e / rXsX^.1X;XXXXX8Xw.8X$Xp V x c e x & p 4 w > 5 3 3 w p n l -.j.m.=X3.^ a S X.p  Xq L $.-.",
"b x e A x.e Z  .q h F y S _.~.6Xz.2 x y 8 2 s f./ b i C  .T e w 2 i T b y ' S w a Z l b C 4.M b.;Xo.",
"0 y g y a w c c q 0.s n N a.8X+XU 3 y 3 3 , p +XqX^ ~ j./.2XtXk.; 8 5 n b a Z b e m w y.OXo.Y E.|.u.",
"$ p 8 v n e 8 8 ] o.S n $ . w Y X.N.Z.S / S B m.|.| p 4 y U.oXw 3 8 n m B p ..f 8 c 8 B A.Q.e u.qXM ",
"e 8 i d r B e 5 4 ^ j.c v 4 b l.oXoX/.u.<X! 7 Q 5.3 , ; w S U e p y 7 c w %.i 4 5 7 , q p y s T $.m ",
"i 1 2 O $ v 5 y T rXn.i i p.A.7X0XqX1X0X_.m b w b y v i 5 5 x %.n q 4 9 A ` i 2 l.V , 8 e e B oXm.i ",
"y ~ T b =.Z.x M sX0X^.} Z.:X0X5XS.l.V <X_.8 c e x Z c i M w | =X} x e : y r.w a p ^ y 2 , 8 c y.P m ",
"w p.;X%X8.oXo.9X|.;XE $X8XK.OXG p r.4. .A > 4 4 w a q ^ m 3 ^.qX8XN 4 1 e | B n M aXF.4 3 4 V b e i ",
"y =X2.0XH.yX/.Z.8.} _.0X=X Xb 5 e u.r.@ 4 i t n b + 2 i 8 2 ! 7X^.w 3 4 e y.x v h &Xc.! B A p i i w ",
"n..X9X.X2.l.~ e l  .;XoXeXN.< , 5 n | # e y I.:.>.z.a 3 w 4 ;.(.R q b c R =.a 2 3 8 , M l.a b n H D ",
"Z.Q.,X<XtXs.V.w K p.~ V 2XoXD , c c p , x x ! rX0XQ.y y V B.uXo.E x n p ^ p 5 w 4 , 5 z.M.B x C a n ",
"1 , e :.yXqX<Xa ' Y 5 5 Q.!.8.N x n a q * v *.<XoXP.f o.&X:XyX^ E.] e N.A b b v 8 > z S | 4 4 a T X.",
"8 i w 2..X~.l.i e V v G V -.:XW.t V p 2 t b j..XW.p.M.;XiXqX<XR.:XqXQ.K.w p n c 7 , 4 w n e b . e a ",
"x 8 g._ 8 Z y o.( i y B e D oXqXQ p t 9 &.p Y  X-X*.M.<XC.=Xo.y $X+Xf.6X4 > w ^ A 2 i s d p y @ b B ",
"+ z.d.O q E w k.tXn u i C i #.j.E._ y 8 f.7.> B aXoX XaX_.N.5 4 j.y b P ..* w 6 f i v Q j 4 3 e i g ",
"r m.;Xq.d.XX=X8X1X^ D x x t y f P.s.Z.b.W W 5 L /. XW.0X1X) 4 v Q Y m v 1 T K c e B n 5.n.C.B 5 i w ",
"e G.'.2XN j.<X|.t.p y e , 9 a 6.0XqXq.a..XP s G 7X.X0X.XO.8 e b p S e 8 2 h j.n b a e e.a.7XY . e e ",
"n B.a.A p R &./.W.^ o.x 4 a 6 i 8.Y f d.^.5 a e o.1X|.R 5 @ b e D Z.n.s 4  .;.V n [ X.!.;X!.' A l.v ",
"n R <.p.g.' e W V ;X:.i i t e V { 2 , S W.5 a e w V.uXU.y # 3 m :.|.A.N.j.>Xx e w B ;X5.R.R...X.e.s ",
"w b S.yX;Xp.R $Xc.z./.Q R N + y i i 8 e # $ a 8 2 e z.W.5.~.b.V 8X=XwX0X<XaXR w 6.j '.<Xe.}.H.n.Q.V ",
"n B Q C.m.<X5.~.A.G 5.C 3 y w n n x A x b A ~ S 3 8 c ,.;X/.$.*..XoX].>XN.Z.p y 3.R.XX{.XXyX9X7XA p ",
"l T c c L N U 1XaX! 3 S x.p n 5 i F l w B x C.0XA -.x s.qX2Xw o.=XM.. T p e n M f 4.XX<X:X9XdX$.8 H ",
"s s 8 k C.M.4 8.L.5.%.A.x X.n N % w p X.F.B &.oX| 3.n l 7XR e V I.I.).W.f u.f.s 5 w N.<X=XqXY.e i c ",
"j.y e 4 l.8XR i N y N w e Y i q Y a b 5 4 p &.^.A Y g.6X;Xi.i @.>.uXtX/ w  .| 6 e s B 0X!.wXc.G.: w ",
"r 3 3 } A.=X$.Z A Z x 6 , 2 w Z j.b n 8 5 z O.~.=XwX}.}..Xl.4.N.;X=X~.A a b e 4 8 5 F @X}.qX>X4.3 b ",
"m k , V.;XpXrXD.' ' n x < 2 q m A i x 8 , 5 B A.x.V.qXOX/.V n.B.V.Y.8., x $.A , 9 k c ' g q.d.U.e C ",
"x i w B s.<XoXy ~ Z v s ~ A w x a e 4 3 , 8 i X.y ( b y i  .l.=XqX6Xm.s +.yX XN 5 m Z J 4 + * }.i.y ",
"X.s S./.Y y w b (.5 7 < b ..1.e 8 >.q W e m i W.&.7 < 4 i ~ y oXqX7XyXV.q j.Q.N.F W.!.n.w i B f.~ ;.",
"w o.N.6X' , 5 r } w r Q n B ) R -.9XQ.p.N C n p.W 4 ; 2 5 R h.o.~.oX1XE.l./ B.H.+.iXA.5.q q a p x i ",
"y A ^ =Xi p Z 1.M.{ 0.:XX.0.1.Q $X;XoX6XG e 5 ).p 5 2 i 8 C #.A 6X;X~.<X1X6XsX^.y Z x c x 5 i v n b ",
"e i R -XQ 3.^.0X;X|.<XOXC e y e B..X6X.XiXl.-.R c i > m c p ~ Y.P.6XO.Z p.;X6X#Xz 6 : < 5 , 9 x t b ",
"1 i l.uX~ 5.6X!..XU.oXY.j @ d X #.Z.~ &.v.n.N.e 4 1 3 V J i $XuX,.N.2 , b R.X.^ ! 4 4 8 a < 2 t i 3 ",
"9 8 | *X X%XsXN.=X;X/.^ D 7.M r _.| p 3 3 Z C.e p | B u $ e q.<.~. Xi i e g.A 8 e t 4 x 8 5 ^ o.4 3 ",
"k v Q >X<X2X_./ m.yXaX XA b w p B a V t 5 5 g.N.p.7X^ $ # 4 N X.o.5.p p 4 N q ; , e x 2 , w >.%.b w ",
"l b A y.*.W XX0.~ S.^.~.S 3 w a 4 n D c 7 , 9 W.0X;X6X X8XX 4 i w N o.F p t.o.a 5 5 i q i *.iXB.e E ",
"p b B t b b s j w i | =Xw 2 8 #.).B a c i , 4 | 0XqX].XX3XA y n y  ./.o.x R m 8 < w a V iXeX|.W.T b ",
"F A j.Z n b w i 5 x y C N i v i ^.A.e 8 w e e a +.<XOXqX~.N.'.' K 4 ~ | b B o.k.i b V t ..W.6Xl.w s ",
"A r.S i x 3 3 5 C ~ ,XsX XI V C T A 2 2 } o.! b n.oXL.=X>X_.~.b.6.e w Q Z.6XeXK.s n n m i < F i ^ u.",
"S 7.5 2 , p 5 M ~.1XqX0XK.y.i e 3 , 3 k x .X/.I 4XqX^.f.Y R o.}.R 4 5 c 5 N p.# e y v c 8 , 4 C y a ",
"( 6XW S l.^ | !.6Xe.I.g.'.| C n c x.I Z x | =XuXrXa b e e D.uX;X~.R 1 v Z b 0 f 5X6XD 8 a : 3 4 4 : ",
"S.7X7XR.7X=X=X3XyX0.T } { c.R a c 2X0X| F 3 b.N.O.& & 4 , v.>XW.oXu.A I y w e x &XaX].Y e e z b w 4 "
};
