/* XPM */
static char *player[] = {
/* columns rows colors chars-per-pixel */
"50 50 150 2 ",
"   c #0B0C0A",
".  c #120F0B",
"X  c #101014",
"o  c #121119",
"O  c #191918",
"+  c #24170D",
"@  c #321E0B",
"#  c #321E0F",
"$  c #2F1D12",
"%  c #261A1B",
"&  c #38210E",
"*  c #3C230E",
"=  c #20201F",
"-  c #352215",
";  c #39271B",
":  c #081729",
">  c #171523",
",  c #191627",
"<  c #1E1B2C",
"1  c #1D213E",
"2  c #312420",
"3  c #30282C",
"4  c #2E2C3F",
"5  c #302B37",
"6  c #323131",
"7  c #5E161A",
"8  c #69001A",
"9  c #6E0018",
"0  c #750014",
"q  c #7C0011",
"w  c #4C290D",
"e  c #522C0C",
"r  c #592F0B",
"t  c #5D310B",
"y  c #503012",
"u  c #523214",
"i  c #61330B",
"p  c #63350C",
"a  c #64360D",
"s  c #66380F",
"d  c #623913",
"f  c #6D3F14",
"g  c #653F1C",
"h  c #451924",
"j  c #730A20",
"k  c #422C21",
"l  c #543E2A",
"z  c #772828",
"x  c #772F2F",
"c  c #6D4015",
"v  c #6A4118",
"b  c #6E4319",
"n  c #704317",
"m  c #774814",
"M  c #734619",
"N  c #70451B",
"B  c #74471A",
"V  c #7E5716",
"C  c #564437",
"Z  c #754C25",
"A  c #725437",
"S  c #061F41",
"D  c #1F2647",
"F  c #042553",
"G  c #042656",
"H  c #2F334E",
"J  c #222F5A",
"K  c #23315F",
"L  c #2E3759",
"P  c #2D3B65",
"I  c #3F3168",
"U  c #2D3E70",
"Y  c #521A44",
"T  c #642446",
"R  c #642447",
"E  c #4F3160",
"W  c #45386D",
"Q  c #2C427C",
"!  c #514643",
"~  c #434256",
"^  c #474656",
"/  c #4C4B5B",
"(  c #544E55",
")  c #595657",
"_  c #72425A",
"`  c #78455B",
"'  c #7A685E",
"]  c #555564",
"[  c #4D5371",
"{  c #5F626F",
"}  c #68666C",
"|  c #686B78",
" . c #68697C",
".. c #6C6D7C",
"X. c #78727A",
"o. c #8E0304",
"O. c #8E0007",
"+. c #83000D",
"@. c #85000C",
"#. c #970002",
"$. c #930005",
"%. c #9C0000",
"&. c #9E0604",
"*. c #980608",
"=. c #8D0A13",
"-. c #A4130F",
";. c #821020",
":. c #891B21",
">. c #9A6A18",
",. c #BB573E",
"<. c #8E3A41",
"1. c #8D4048",
"2. c #84435E",
"3. c #904B54",
"4. c #815E75",
"5. c #905C76",
"6. c #A65460",
"7. c #A65E6C",
"8. c #A85C6A",
"9. c #E5AF19",
"0. c #CEA434",
"q. c #A98459",
"w. c #958B74",
"e. c #B89772",
"r. c #BB9E7B",
"t. c #D09268",
"y. c #D6A576",
"u. c #294384",
"i. c #2B488D",
"p. c #797B8A",
"a. c #7F7A89",
"s. c #5C71A7",
"d. c #7E808F",
"f. c #858898",
"g. c #86899A",
"h. c #B09B84",
"j. c #9396AA",
"k. c #9194AE",
"l. c #979BB5",
"z. c #9A9DB3",
"x. c #A0A4BB",
"c. c #DBB280",
"v. c #E2B58B",
"b. c #E8C197",
"n. c #9AA4C7",
"m. c #A7ABC4",
"M. c #A7AECE",
"N. c #AEB3CE",
"B. c #B3B8D4",
"V. c None",
/* pixels */
"V.V.V.V.V.V.V.V.V.V.V.V.V.V.V.V.V.V.V.V.V.V.V.V.V.V.V.V.V.V.V.V.V.V.V.V.V.V.V.V.V.V.V.V.V.V.V.V.V.V.",
"V.V.V.V.V.V.V.V.V.V.V.V.V.V.V.V.V.V.V.V.V.V.V.V.V.V.V.V.V.V.V.V.V.V.V.V.V.V.V.V.V.V.V.V.V.V.V.V.V.V.",
"V.V.V.V.V.V.V.V.V.V.V.V.V.V.V.V.V.V.V.V.V.V.V.V.V.V.V.V.V.V.V.V.V.V.V.V.V.V.V.V.V.V.V.V.V.V.V.V.V.V.",
"V.V.V.V.V.V.V.V.V.V.V.V.V.V.V.V.V.V.V.V.V.V.V.V.V.V.V.V.V.V.V.V.V.V.V.V.V.V.V.V.V.V.V.V.V.V.V.V.V.V.",
"V.V.V.V.V.V.V.V.V.V.V.V.V.V.V.V.V.V.V.V.V.V.V.V.V.V.V.V.V.V.V.V.V.V.V.V.V.V.V.V.V.V.V.V.V.V.V.V.V.V.",
"V.V.V.V.V.V.V.V.V.V.V.V.V.V.V.V.V.V.V.V.V.V.V.V.V.V.V.V.V.V.V.V.V.V.V.V.V.V.V.V.V.V.V.V.V.V.V.V.V.V.",
"V.V.V.V.V.V.V.V.V.V.V.V.V.V.V.V.V.V.V.V.V.V.V.V.V.V.V.V.V.V.V.V.V.V.V.V.V.V.V.V.V.V.V.V.V.V.V.V.V.V.",
"V.V.V.V.V.V.V.V.V.V.V.V.V.V.V.V.V.V.V.V.V.V.V.V.V.V.V.V.V.V.V.V.V.V.V.V.V.V.V.V.V.V.V.V.V.V.V.V.V.V.",
"V.V.V.V.V.V.V.V.V.V.V.V.V.V.V.V.V.V.V.V.V.V.V.V.V.V.V.V.V.V.V.V.V.V.V.V.V.V.V.V.V.V.V.V.V.V.V.V.V.V.",
"V.V.V.V.V.V.V.V.V.V.V.V.V.V.V.V.V.V.V.V.V.V.V.V.V.V.V.V.V.V.V.V.V.V.V.V.V.V.V.V.V.V.V.V.V.V.V.V.V.V.",
"V.V.V.V.V.V.V.V.V.V.V.V.V.V.V.V.V.V.V.V.V.V.V.V.V.V.V.V.V.V.V.V.V.V.V.V.V.V.V.V.V.V.V.V.V.V.V.V.V.V.",
"V.V.V.V.V.V.V.V.V.V.V.V.V.V.V.V.V.V.V.V.V.V.V.V.V.V.V.V.V.V.V.V.V.V.V.V.V.V.V.V.V.V.V.V.V.V.V.V.V.V.",
"V.V.V.V.V.V.V.V.V.V.V.V.V.V.V.V.V.V.V.V.V.V.V.V.$ # # V.V.V.V.V.V.V.V.V.V.V.V.V.V.V.V.V.V.V.V.V.V.V.",
"V.V.V.V.V.V.V.V.V.V.V.V.V.V.V.V.V.V.V.V.V.V.V.V.% l # V.V.V.V.V.V.V.V.V.V.V.V.V.V.V.V.V.V.V.V.V.V.V.",
"V.V.V.V.V.V.V.V.V.V.V.V.V.V.V.V.V.V.V.V.V.V.V.V.C r.# V.V.V.V.V.V.V.V.V.V.V.V.V.V.V.V.V.V.V.V.V.V.V.",
"V.V.V.V.V.V.V.V.V.V.V.V.V.V.V.V.V.V.V.V.V.V.V.V.A c.u V.V.V.V.V.V.V.V.V.V.V.V.V.V.V.V.V.V.V.V.V.V.V.",
"V.V.V.V.V.V.V.V.V.V.V.V.V.V.V.V.V.V.V.V.V.V.V.V.e.y.q.V.V.V.V.V.V.V.V.V.V.V.V.V.V.V.V.V.V.V.V.V.V.V.",
"V.V.V.V.V.V.V.V.V.V.V.V.V.V.V.V.V.V.V.V.V.V.B.V.v.t.h.V.V.V.V.V.V.V.V.V.V.V.V.V.V.V.V.V.V.V.V.V.V.V.",
"V.V.V.V.V.V.V.V.V.V.V.V.V.V.V.V.V.V.V.V.V.V.B.8.,.b.:.) V.d.V.V.V.V.V.V.V.V.V.V.V.V.V.V.V.V.V.V.V.V.",
"V.V.V.V.V.V.V.V.V.V.V.V.V.V.V.V.V.V.V.V.V.z.B.5.&.-.+.x V.; 7.V.V.V.V.V.V.V.V.V.V.V.V.V.V.V.V.V.V.V.",
"V.V.V.V.V.V.V.V.V.V.V.V.V.V.V.V.V.V.V.%.*.p.N.<.9 9 @.z } X.6.V.V.V.V.V.V.V.V.V.V.V.V.V.V.V.V.V.V.V.",
"V.V.V.V.V.V.V.V.V.V.V.V.V.V.V.V.V.V.V.#.` / ..o.%.%.#.7 M.n.%.V.V.V.V.V.V.V.V.V.V.V.V.V.V.V.V.V.V.V.",
"V.V.V.V.V.V.V.V.V.V.V.V.V.V.V.V.V.V.%.q 2. .4 h o.O.j 4.s.i.%.V.V.V.V.V.V.V.V.V.V.V.V.V.V.V.V.V.V.V.",
"V.V.V.V.V.V.V.V.V.V.V.V.V.V.V.V.V.V.$.8 8 k.[ 5 Y Y I { i.i.%.V.V.V.V.V.V.V.V.V.V.V.V.V.V.V.V.V.V.V.",
"V.V.V.V.V.V.V.V.V.V.V.V.V.V.V.V.V.V.+.8 V.V.J 3 U i.i.| i.i.;.V.V.V.V.V.V.V.V.V.V.V.V.V.V.V.V.V.V.V.",
"V.V.V.V.V.V.V.V.V.V.V.V.V.V.V.V.V.V.0 8 V., D U 3 i.i.V.i.i.W V.V.V.V.V.V.V.V.V.V.V.V.V.V.V.V.V.V.V.",
"V.V.V.V.V.V.V.V.V.V.V.V.V.V.V.V.V.V.8 8 V., , i.5 P V.V.i.E E V.V.V.V.V.V.V.V.V.V.V.V.V.V.V.V.V.V.V.",
"V.V.V.V.V.V.V.V.V.V.V.V.V.V.V.V.V.V.V.V.V., , i.Q 2 V.' _ =.R V.V.V.V.V.V.V.V.V.V.V.V.V.V.V.V.V.V.V.",
"V.V.V.V.V.V.V.V.V.V.V.V.V.V.V.V.V.V.V.V.k , V.L i.! V.Z 1.%.R V.V.V.V.V.V.V.V.V.V.V.V.V.V.V.V.V.V.V.",
"V.V.V.V.V.V.V.V.V.V.V.V.V.V.V.V.V.V.V.V.N g V.H ( - # B a.%.R V.V.V.V.V.V.V.V.V.V.V.V.V.V.V.V.V.V.V.",
"V.V.V.V.V.V.V.V.V.V.V.V.V.V.V.V.V.V.V.p B V.i.i., ^ F V.V.3.V.V.V.V.V.V.V.V.V.V.V.V.V.V.V.V.V.V.V.V.",
"V.V.V.V.V.V.V.V.V.V.V.V.V.V.V.V.V.V.V.m V.V.i.u., , : G V.B.V.V.V.V.V.V.V.V.V.V.V.V.V.V.V.V.V.V.V.V.",
"V.V.V.V.V.V.V.V.V.V.V.V.V.V.V.V.V.V.n >.V.V.i.J , >   S V.V.V.V.V.V.V.V.V.V.V.V.V.V.V.V.V.V.V.V.V.V.",
"V.V.V.V.V.V.V.V.V.V.V.V.V.V.V.V.V.9.d f V.V.i.D , o   O V.V.V.V.V.V.V.V.V.V.V.V.V.V.V.V.V.V.V.V.V.V.",
"V.V.V.V.V.V.V.V.V.V.V.V.V.V.V.V.V.0.V V.V.V.K , , X   6 ) V.V.V.V.V.V.V.V.V.V.V.V.V.V.V.V.V.V.V.V.V.",
"V.V.V.V.V.V.V.V.V.V.V.V.V.V.V.B.m.w.9.V.V.V.~ , V.V.  6 ) V.V.V.V.V.V.V.V.V.V.V.V.V.V.V.V.V.V.V.V.V.",
"V.V.V.V.V.V.V.V.V.V.V.V.V.V.B.B.B.V.9.V.V.j.l., V.V.  O ) V.V.V.V.V.V.V.V.V.V.V.V.V.V.V.V.V.V.V.V.V.",
"V.V.V.V.V.V.V.V.V.V.V.V.B.B.B.B.V.V.V.V.V.g.x.V.V.V.V.  = V.V.V.V.V.V.V.V.V.V.V.V.V.V.V.V.V.V.V.V.V.",
"V.V.V.V.V.V.V.V.V.V.V.B.B.B.V.V.V.V.V.V., ] g.V.V.V.V.    V.V.V.V.V.V.V.V.V.V.V.V.V.V.V.V.V.V.V.V.V.",
"V.V.V.V.V.V.V.V.V.V.B.B.B.V.V.V.V.V.V.B , < V.V.V.V.V.r r V.V.V.V.V.V.V.V.V.V.V.V.V.V.V.V.V.V.V.V.V.",
"V.V.V.V.V.V.V.V.V.B.B.V.V.V.V.V.V.V.V.B B V.V.V.V.V.V.t r V.V.V.V.V.V.V.V.V.V.V.V.V.V.V.V.V.V.V.V.V.",
"V.V.V.V.V.V.V.V.V.V.V.V.V.V.V.V.V.V.V.b B V.V.V.V.V.V.@ . V.V.V.V.V.V.V.V.V.V.V.V.V.V.V.V.V.V.V.V.V.",
"V.V.V.V.V.V.V.V.V.V.V.V.V.V.V.V.V.V.V.y v V.V.V.V.V.V.+ # V.V.V.V.V.V.V.V.V.V.V.V.V.V.V.V.V.V.V.V.V.",
"V.V.V.V.V.V.V.V.V.V.V.V.V.V.V.V.V.V.i e V.V.V.V.V.V.V.# # V.V.V.V.V.V.V.V.V.V.V.V.V.V.V.V.V.V.V.V.V.",
"V.V.V.V.V.V.V.V.V.V.V.V.V.V.V.V.V.V.i i V.V.V.V.V.V.V.# # V.V.V.V.V.V.V.V.V.V.V.V.V.V.V.V.V.V.V.V.V.",
"V.V.V.V.V.V.V.V.V.V.V.V.V.V.V.V.V.V.i V.V.V.V.V.V.V.V.V.w V.V.V.V.V.V.V.V.V.V.V.V.V.V.V.V.V.V.V.V.V.",
"V.V.V.V.V.V.V.V.V.V.V.V.V.V.V.V.V.V.c V.V.V.V.V.V.V.V.V.e * V.V.V.V.V.V.V.V.V.V.V.V.V.V.V.V.V.V.V.V.",
"V.V.V.V.V.V.V.V.V.V.V.V.V.V.V.V.V.V.s a V.V.V.V.V.V.V.V.& # V.V.V.V.V.V.V.V.V.V.V.V.V.V.V.V.V.V.V.V.",
"V.V.V.V.V.V.V.V.V.V.V.V.V.V.V.V.V.V.V.V.V.V.V.V.V.V.V.V.V.V.V.V.V.V.V.V.V.V.V.V.V.V.V.V.V.V.V.V.V.V.",
"V.V.V.V.V.V.V.V.V.V.V.V.V.V.V.V.V.V.V.V.V.V.V.V.V.V.V.V.V.V.V.V.V.V.V.V.V.V.V.V.V.V.V.V.V.V.V.V.V.V."
};
