/* XPM */
static char *shield[] = {
/* columns rows colors chars-per-pixel */
"50 50 211 2 ",
"   c #0E0D0C",
".  c #070606",
"X  c #100D0D",
"o  c #1F110A",
"O  c #0E0D11",
"+  c #161716",
"@  c #2F170C",
"#  c #291106",
"$  c #30170C",
"%  c #34190D",
"&  c #3A1C0D",
"*  c #331507",
"=  c #351C14",
"-  c #3C1F15",
";  c #2F1A17",
":  c #22230E",
">  c #3B320E",
",  c #2B2817",
"<  c #3D2316",
"1  c #312C13",
"2  c #3C2E1F",
"3  c #393616",
"4  c #3E2821",
"5  c #383835",
"6  c #2C2D2D",
"7  c #452011",
"8  c #4A2B1E",
"9  c #44281C",
"0  c #532C18",
"q  c #403415",
"w  c #55321E",
"e  c #5B321B",
"r  c #653818",
"t  c #473925",
"y  c #5B3A25",
"u  c #5B352B",
"i  c #563426",
"p  c #403D3B",
"a  c #423C34",
"s  c #62352A",
"d  c #673D2B",
"f  c #6B3D2D",
"g  c #673A23",
"h  c #773E2B",
"j  c #713E32",
"k  c #6A3F3B",
"l  c #47441C",
"z  c #53511F",
"x  c #4C4724",
"c  c #514E21",
"v  c #575427",
"b  c #5F4130",
"n  c #794429",
"m  c #6D4336",
"M  c #714B34",
"N  c #595959",
"B  c #555447",
"V  c #605F5F",
"C  c #605F62",
"Z  c #6F6F6F",
"A  c #716D69",
"S  c #747574",
"D  c #87481C",
"F  c #8F4B1E",
"G  c #8A461D",
"H  c #914A1E",
"J  c #8A4A2C",
"K  c #884923",
"L  c #934D21",
"P  c #934D2C",
"I  c #84562A",
"U  c #9C5224",
"Y  c #985528",
"T  c #895433",
"R  c #935331",
"E  c #A15524",
"W  c #A6572A",
"Q  c #A55829",
"!  c #A85B2E",
"~  c #B35C25",
"^  c #B55D29",
"/  c #B95E25",
"(  c #A45930",
")  c #AA5D35",
"_  c #937324",
"`  c #BC6229",
"'  c #BB6B28",
"]  c #A3702E",
"[  c #BF7034",
"{  c #BC6D2D",
"}  c #C46B25",
"|  c #C66B2C",
" . c #C56629",
".. c #D06C20",
"X. c #DE7126",
"o. c #DD712A",
"O. c #DB7A2A",
"+. c #D67727",
"@. c #C36E33",
"#. c #DB7631",
"$. c #E16F27",
"%. c #E07126",
"&. c #E17028",
"*. c #827B7D",
"=. c #9B9339",
"-. c #948D2A",
";. c #A29B33",
":. c #A49438",
">. c #A69F3B",
",. c #B59938",
"<. c #A49C2D",
"1. c #B2AA3A",
"2. c #C8842B",
"3. c #DD8929",
"4. c #D6982E",
"5. c #C5853B",
"6. c #E18B29",
"7. c #E18327",
"8. c #E29C2A",
"9. c #E49A33",
"0. c #DFAC2C",
"q. c #DEAA34",
"w. c #DBAB3F",
"e. c #C3BC38",
"r. c #CBB036",
"t. c #E2A92D",
"y. c #EAB42D",
"u. c #E8BB2A",
"i. c #E0A234",
"p. c #E8A930",
"a. c #EAB431",
"s. c #CAC639",
"d. c #EDC636",
"f. c #F3CE36",
"g. c #F3D635",
"h. c #F9E53D",
"j. c #FAEA3A",
"k. c #F8E738",
"l. c #FBF235",
"z. c #FAF13A",
"x. c #F7F23B",
"c. c #999456",
"v. c #BAB643",
"b. c #9A9876",
"n. c #A39F62",
"m. c #BF9B72",
"M. c #C5B446",
"N. c #D09B63",
"B. c #CFC940",
"V. c #DACE4A",
"C. c #F7DC42",
"Z. c #E0DF58",
"A. c #E9D048",
"S. c #F6EE42",
"D. c #F9E744",
"F. c #F7F141",
"G. c #F9F142",
"H. c #F8F14E",
"J. c #F6EF5D",
"K. c #F6F154",
"L. c #D5D567",
"P. c #DFDB72",
"I. c #CBC669",
"U. c #EEDF62",
"Y. c #F9F363",
"T. c #FAF36A",
"R. c #F9E97C",
"E. c #F9F06D",
"W. c #9A9A99",
"Q. c #9C9A97",
"!. c #9A9883",
"~. c #AD9D90",
"^. c #B09A85",
"/. c #BEBD85",
"(. c #AFAC88",
"). c #B1B2AA",
"_. c #E7BF82",
"`. c #E8BC90",
"'. c #E8C190",
"]. c #E4C189",
"[. c #F9EC83",
"{. c #F9F79B",
"}. c #F8F68E",
"|. c #DBD9AC",
" X c #CECAAF",
".X c #E7C2A5",
"XX c #FAF7A4",
"oX c #F9F8AB",
"OX c #F7EFB6",
"+X c #FBF3B0",
"@X c #F4E9A0",
"#X c #D0CFCE",
"$X c #E6D8C6",
"%X c #E1E1C9",
"&X c #FBF3CF",
"*X c #FCFBCD",
"=X c #FBF8C4",
"-X c #EFEFD3",
";X c #F4E9D9",
":X c #F4E6D9",
">X c #FBF3D1",
",X c #FCFCD4",
"<X c #FCFBDB",
"1X c #F6F2DA",
"2X c #EAE7E6",
"3X c #FBF3EA",
"4X c #FBF7E5",
"5X c #FDFEF5",
"6X c #FDFEFC",
"7X c #F3F3F3",
"8X c None",
/* pixels */
"8X8X8X8X8X8X8X8X8X8X8X8X8X8X8X8X8X8X8X8X8X8X8X8X8X8X8X8X8X8X8X8X8X8X8X8X8X8X8X8X8X8X8X8X8X8X8X8X8X8X",
"8X8X8X8X8X8X8X8X8X8X8X8X8X8X8X8X8X8X8X8X8X8X8X8X8X8X8X8X8X8X8X8X8X8X8X8X8X8X8X8X8X8X8X8X8X8X8X8X8X8X",
"8X8X8X8X8X8X8X8X8X8X8X8X8X8X8X8X8X8X8X8X8X8X8X8X8X8X8X8X8X8X8X8X8X8X8X8X8X8X8X8X8X8X8X8X8X8X8X8X8X8X",
"8X8X8X8X8X8X8X8X8X8X8X8X8X8X8X8X8X8X8X8X8X8X8X8X8X8X8X8X8X8X8X8X8X8X8X8X8X8X8X8X8X8X8X8X8X8X8X8X8X8X",
"8X8X8X8X8X8X8X8X8X8X8X8X8X8X8X8X8X8X8X8X8X8X8X8X8X8X8X8X8X8X8X8X8X8X8X8X8X8X8X8X8X8X8X8X8X8X8X8X8X8X",
"8X8X8X8X8X8X8X8X8X8X8X8X8X8X8X8X8X8X8X8X8X8X8X8X8X8X8X8X8X8X8X8X8X8X8X8X8X8X8X8X8X8X8X8X8X8X8X8X8X8X",
"8X8X8X8X8X8X8X8X8X8X8X8X8X8X8X8X8X8X8X8X8X8X8X8X8X8X8X8X8X8X8X8X8X8X8X8X8X8X8X8X8X8X8X8X8X8X8X8X8X8X",
"8X8X8X8X8X8X8X8X8X8X8X8X8X8X8X8X8X8X8X8X8X8X8X8X8X8X8X8X8X8X8X8X8X8X8X8X8X8X8X8X8X8X8X8X8X8X8X8X8X8X",
"8X8X8X8X8X8X8X8X8X8X8X8X8X8X8X8X8X8X8X8X8X8X8X8XV N N 8X8X8X8X8X8X8X8X8X8X8X8X8X8X8X8X8X8X8X8X8X8X8X",
"8X8X8X8X8X8X8X8X8X8X8X8X8X8X8X8X8X8X8X8X8X8Xi r 2X6X2XZ A 8X8X8X8X8X8X8X8X8X8X8X8X8X8X8X8X8X8X8X8X8X",
"8X8X8X8X8X8X8X8X8X8X8X8X8X8X8X8X8X8X8X. w n ` G A S S W. X-.v . 8X8X8X8X8X8X8X8X8X8X8X8X8X8X8X8X8X8X",
"8X8X8X8X8X8X8X8X8X8X8X8X8X8X8X8X8X. < L / H 0 8 8 =.:.T N n.I.>.x . 8X8X8X8X8X8X8X8X8X8X8X8X8X8X8X8X",
"8X8X8X8X8X8X8X8X8X8X8X8X8X8X8X  , 1.^ E 7 8 8 Q ` OX=X$X^.T x /.I.v., + 8X8X8X8X8X8X8X8X8X8X8X8X8X8X",
"8X8X8X8X8X8X8X8X8X8X8X8X8XO   M.' { * 7 i U w.3.#.3X6X5X4X%Xm.b , |.V.v.X + 8X8X8X8X8X8X8X8X8X8X8X8X",
"8X8X8X8X8X8X8X8X8X8X8X8X, ).U.2.# $ d Y q.9.+.&.#.3X=XK.H.H.H.@XN.i 3 Z.3X).6 8X8X8X8X8X8X8X8X8X8X8X",
"8X8X8X8X8X8X8X8X8X8X8X8X;.D.2.& m I i.h.y.X.%.&.#.1XH.l.l.z.a.d.C.OX,.y 2X6XQ.8X8X8X8X8X8X8X8X8X8X8X",
"8X8X8X8X8X8X8X8X8X8X8XX -.6.$ u 8.z.k.q...$.X.$.#.>XG.l.l.l.l.y.6.d.f.} a *X!.8X8X8X8X8X8X8X8X8X8X8X",
"8X8X8X8X8X8X8X8X8X8X8XO H &.@ y j.k.t.W ^ X.X.X.#.&XG.l.l.l.z.l.l.p.%.} > g.-.8X8X8X8X8X8X8X8X8X8X8X",
"8X8X8X8X8X8X8X8X8X8X8XX H %.@ y h.0.Q ^ X.X.X.X.#.&XS.l.l.l.l.l.l.l.p.| & 6._ 8X8X8X8X8X8X8X8X8X8X8X",
"8X8X8X8X8X8X8X8X8X8X8XX H %.@ y i.Y J X.o.X.X.X.#.&XS.l.l.l.l.l.l.x.[.| & X.G 8X8X8X8X8X8X8X8X8X8X8X",
"8X8X8X8X8X8X8X8X8X8X8XX H X.@ u J h ` X.X.X.X.X.o.&Xx.z.l.l.l.l.l.G.>X@.& &.D 8X8X8X8X8X8X8X8X8X8X8X",
"8X8X8X8X8X8X8X8X8X8X8XX H o.@ u s J %.$.X.%.o.X.#.&XS.z.l.l.l.l.x.XX4X@.& o.D 8X8X8X8X8X8X8X8X8X8X8X",
"8X8X8X8X8X8X8X8X8X8X8XX F X.$ i k | $.%.X.%.X.X.#.>Xx.l.l.l.l.l.XX5X4X@.& %.D 8X8X8X8X8X8X8X8X8X8X8X",
"8X8X8X8X8X8X8X8X8X8X8XX L X.@ u h o.%.%.%.X.X.X.#.>Xx.l.l.l.x.XX6X6X3X@.q d.D 8X8X8X8X8X8X8X8X8X8X8X",
"8X8X8X8X8X8X8X8X8X8X8XX H %.@ s ..X.X.X.X.X.X.X.#.&XG.l.l.z.XX6X6X4X3X@.x *X=.8X8X8X8X8X8X8X8X8X8X8X",
"8X8X8X8X8X8X8X8X8X8X8XX H %.@ s 3.X.$.$.X.X.X.X.o.&XG.l.G.{.6X6X<XY.+X@.5 4XQ.8X8X8X8X8X8X8X8X8X8X8X",
"8X8X8X8X8X8X8X8X8X8X8XX H &.@ y C.o.X.X.X.X.X.X.#.>XG.G.{.6X6X,XJ.l.j.} t }.b.8X8X8X8X8X8X8X8X8X8X8X",
"8X8X8X8X8X8X8X8X8X8X8XX H X.@ y g.8.$.X.X.$.X.X.#.>XK.{.6X6X,XT.l.x.k.} p <Xc.8X8X8X8X8X8X8X8X8X8X8X",
"8X8X8X8X8X8X8X8X8X8X8XX _ 3.$ y r.g.X.X.X.X.X.X.#.1XoX6X6X*XT.l.l.x.u.} p 6XQ.8X8X8X8X8X8X8X8X8X8X8X",
"8X8X8X8X8X8X8X8X8X8X8XX <.f.Y < m ,.4.~ $.X.X.X.#.3X6X6X,XT.l.l.l.y.o.n ).6XQ.8X8X8X8X8X8X8X8X8X8X8X",
"8X8X8X8X8X8X8X8X8X8X8X8Xv s.6.U = m ] W ^ X.o.&.#.3X6X,XT.l.l.l.a.O.r 1.{.#XN 8X8X8X8X8X8X8X8X8X8X8X",
"8X8X8X8X8X8X8X8X8X8X8X8X8Xl r.O.U = f P ( K  .#.R 1XE.J.g.u.l.y.O.0  XJ. XB 8X8X8X8X8X8X8X8X8X8X8X8X",
"8X8X8X8X8X8X8X8X8X8X8X8X8X8X3 B.+.U = f Y P h n k :X4.g.t.k.y.O.r 1.4X%X5 8X8X8X8X8X8X8X8X8X8X8X8X8X",
"8X8X8X8X8X8X8X8X8X8X8X8X8X8X8X, A.o.H 7 f ( J d k :X+.8.R.].+.r 1.j.>X5 8X8X8X8X8X8X8X8X8X8X8X8X8X8X",
"8X8X8X8X8X8X8X8X8X8X8X8X8X8X8X8Xo } X.L 9 s ( J m :X4.R.].| r 1.x.V.: 8X8X8X8X8X8X8X8X8X8X8X8X8X8X8X",
"8X8X8X8X8X8X8X8X8X8X8X8X8X8X8X8X8X= ` o.L 9 s ) R 1X[.`.| n >.x.s.1 8X8X8X8X8X8X8X8X8X8X8X8X8X8X8X8X",
"8X8X8X8X8X8X8X8X8X8X8X8X8X8X8X8X8X8X< ^ %.G 8 u ) .X`.| I :.l.e.c 8X8X8X8X8X8X8X8X8X8X8X8X8X8X8X8X8X",
"8X8X8X8X8X8X8X8X8X8X8X8X8X8X8X8X8X8X8X0 ^ %.K 8 s K E I =.x.s.v 8X8X8X8X8X8X8X8X8X8X8X8X8X8X8X8X8X8X",
"8X8X8X8X8X8X8X8X8X8X8X8X8X8X8X8X8X8X8X8Xw ~ o.L 4 *.4 ;.l.1.v 8X8X8X8X8X8X8X8X8X8X8X8X8X8X8X8X8X8X8X",
"8X8X8X8X8X8X8X8X8X8X8X8X8X8X8X8X8X8X8X8X8Xw / o.~.7X(.G.s.z 8X8X8X8X8X8X8X8X8X8X8X8X8X8X8X8X8X8X8X8X",
"8X8X8X8X8X8X8X8X8X8X8X8X8X8X8X8X8X8X8X8X8X8X8 ' 1X6X*Xs.x 8X8X8X8X8X8X8X8X8X8X8X8X8X8X8X8X8X8X8X8X8X",
"8X8X8X8X8X8X8X8X8X8X8X8X8X8X8X8X8X8X8X8X8X8X8X7 P.,XL.3 8X8X8X8X8X8X8X8X8X8X8X8X8X8X8X8X8X8X8X8X8X8X",
"8X8X8X8X8X8X8X8X8X8X8X8X8X8X8X8X8X8X8X8X8X8X8X8X3 L.1 8X8X8X8X8X8X8X8X8X8X8X8X8X8X8X8X8X8X8X8X8X8X8X",
"8X8X8X8X8X8X8X8X8X8X8X8X8X8X8X8X8X8X8X8X8X8X8X8X8X, 8X8X8X8X8X8X8X8X8X8X8X8X8X8X8X8X8X8X8X8X8X8X8X8X",
"8X8X8X8X8X8X8X8X8X8X8X8X8X8X8X8X8X8X8X8X8X8X8X8X8X8X8X8X8X8X8X8X8X8X8X8X8X8X8X8X8X8X8X8X8X8X8X8X8X8X",
"8X8X8X8X8X8X8X8X8X8X8X8X8X8X8X8X8X8X8X8X8X8X8X8X8X8X8X8X8X8X8X8X8X8X8X8X8X8X8X8X8X8X8X8X8X8X8X8X8X8X",
"8X8X8X8X8X8X8X8X8X8X8X8X8X8X8X8X8X8X8X8X8X8X8X8X8X8X8X8X8X8X8X8X8X8X8X8X8X8X8X8X8X8X8X8X8X8X8X8X8X8X",
"8X8X8X8X8X8X8X8X8X8X8X8X8X8X8X8X8X8X8X8X8X8X8X8X8X8X8X8X8X8X8X8X8X8X8X8X8X8X8X8X8X8X8X8X8X8X8X8X8X8X",
"8X8X8X8X8X8X8X8X8X8X8X8X8X8X8X8X8X8X8X8X8X8X8X8X8X8X8X8X8X8X8X8X8X8X8X8X8X8X8X8X8X8X8X8X8X8X8X8X8X8X",
"8X8X8X8X8X8X8X8X8X8X8X8X8X8X8X8X8X8X8X8X8X8X8X8X8X8X8X8X8X8X8X8X8X8X8X8X8X8X8X8X8X8X8X8X8X8X8X8X8X8X"
};
